<?xml version="1.0"?>
<svg xmlns:rdf="http://www.w3.org/1999/02/22-rdf-syntax-ns#" xmlns="http://www.w3.org/2000/svg" xmlns:cc="http://creativecommons.org/ns#" xmlns:xlink="http://www.w3.org/1999/xlink" xmlns:dc="http://purl.org/dc/elements/1.1/" xmlns:svg="http://www.w3.org/2000/svg" id="svg2" viewBox="0 0 610 610" version="1.1">
  <g id="layer4" transform="translate(5 -397.36)">
    <rect id="rect5840" stroke-linejoin="round" ry="1.5381" height="600" width="600" stroke="#4a0" y="402.36" x="0" stroke-width="10" fill="none"/>
  </g>
  <g id="layer1">
    <path id="path14007" fill-rule="evenodd" fill="#4a0" d="m294.02 58.721c-16.15 0.62225-37.95 9.6233-55.045 46.54-55.391-49.262-99.441 8.3157-99.579 8.5858-23.415 45.808 21.504 112.69 88.506 158.4-81.07-26.74-153.93-18.89-174.53 29.68-0.955 2.25-20.74 48.69 46.62 75.03-45.794 58.291 14.326 98.735 14.604 98.857 45.863 20.017 107.68-25.733 149.25-92.357-27.674 79.247-21.232 150.93 26.239 172.52 2.2273 1.0129 48.091 21.966 76.148-44.694 57.094 47.278 99.049-11.761 99.178-12.036 21.878-46.806-25.873-112.52-94.925-155.83 79.328 28.708 151.48 23.132 173.56-24.313 1.0324-2.2184 22.359-47.908-44.052-76.55 47.777-56.677-10.88-99.207-11.153-99.338-43.307-20.708-103.4 18.537-146.92 79.278 24.678-72.619 18.581-137.36-25.276-159.2-0.95823-0.47724-10.067-5.0577-22.628-4.5737z"/>
  </g>
  <metadata>
    <rdf:RDF>
      <cc:Work>
        <dc:format>image/svg+xml</dc:format>
        <dc:type rdf:resource="http://purl.org/dc/dcmitype/StillImage"/>
        <cc:license rdf:resource="http://creativecommons.org/licenses/publicdomain/"/>
        <dc:publisher>
          <cc:Agent rdf:about="http://openclipart.org/">
            <dc:title>Openclipart</dc:title>
          </cc:Agent>
        </dc:publisher>
        <dc:title>eco green quatrefoil icon</dc:title>
        <dc:date>2012-05-27T16:54:50</dc:date>
        <dc:description>clip art, clipart, ecology, green, icon, quatrefoil, </dc:description>
        <dc:source>http://openclipart.org/detail/170254/eco-quatrefoil-icon-by-cybergedeon</dc:source>
        <dc:creator>
          <cc:Agent>
            <dc:title>dominiquechappard</dc:title>
          </cc:Agent>
        </dc:creator>
        <dc:subject>
          <rdf:Bag>
            <rdf:li>clip art</rdf:li>
            <rdf:li>clipart</rdf:li>
            <rdf:li>ecology</rdf:li>
            <rdf:li>green</rdf:li>
            <rdf:li>icon</rdf:li>
            <rdf:li>quatrefoil</rdf:li>
          </rdf:Bag>
        </dc:subject>
      </cc:Work>
      <cc:License rdf:about="http://creativecommons.org/licenses/publicdomain/">
        <cc:permits rdf:resource="http://creativecommons.org/ns#Reproduction"/>
        <cc:permits rdf:resource="http://creativecommons.org/ns#Distribution"/>
        <cc:permits rdf:resource="http://creativecommons.org/ns#DerivativeWorks"/>
      </cc:License>
    </rdf:RDF>
  </metadata>
</svg>
